<svg height="512" viewBox="0 0 64 64" width="512" xmlns="http://www.w3.org/2000/svg"><g id="Working_Hours" data-name="Working Hours"><circle cx="32" cy="32" fill="#006df0" r="29"/><circle cx="32" cy="32" fill="#ffcd00" r="25"/><path d="m43.165 9.633a45.009 45.009 0 0 1 -32.784 34.915 25 25 0 1 0 32.784-34.915z" fill="#ebbf00"/><circle cx="50" cy="50" fill="#ed1c24" r="11"/><circle cx="50" cy="50" fill="#ed1c24" r="11"/><path d="m50 39a11.078 11.078 0 0 0 -1.5.114 10.987 10.987 0 0 1 0 21.772 10.995 10.995 0 1 0 1.5-21.886z" fill="#d51920"/><g fill="#f1f2f2"><path d="m49 48a3 3 0 0 0 -6 0 2.974 2.974 0 0 0 .78 2 2.974 2.974 0 0 0 -.78 2 3 3 0 0 0 6 0 2.974 2.974 0 0 0 -.78-2 2.974 2.974 0 0 0 .78-2zm-3 5a1 1 0 1 1 1-1 1 1 0 0 1 -1 1zm0-4a1 1 0 1 1 1-1 1 1 0 0 1 -1 1z"/><path d="m57 51v3a1 1 0 0 1 -2 0v-3a1 1 0 0 0 -2 0v3a1 1 0 0 1 -2 0v-8a1 1 0 0 1 2 0v2.18a2.98 2.98 0 0 1 4 2.82z"/><path d="m32 13a1 1 0 0 0 1-1v-2a1 1 0 0 0 -2 0v2a1 1 0 0 0 1 1z"/><path d="m21.866 12.447a1 1 0 0 0 -1.732 1l1 1.733a1 1 0 1 0 1.732-1z"/><path d="m15.18 21.134-1.733-1a1 1 0 0 0 -1 1.732l1.733 1a1 1 0 1 0 1-1.732z"/><path d="m13 32a1 1 0 0 0 -1-1h-2a1 1 0 0 0 0 2h2a1 1 0 0 0 1-1z"/><path d="m14.18 41.134-1.733 1a1 1 0 1 0 1 1.732l1.733-1a1 1 0 1 0 -1-1.732z"/><path d="m22.5 48.454a1 1 0 0 0 -1.366.366l-1 1.733a1 1 0 1 0 1.732 1l1-1.733a1 1 0 0 0 -.366-1.366z"/><path d="m32 51a1 1 0 0 0 -1 1v2a1 1 0 0 0 2 0v-2a1 1 0 0 0 -1-1z"/><path d="m51 32a1 1 0 0 0 1 1h2a1 1 0 0 0 0-2h-2a1 1 0 0 0 -1 1z"/><path d="m48.454 22.5a1 1 0 0 0 1.366.366l1.733-1a1 1 0 0 0 -1-1.732l-1.733 1a1 1 0 0 0 -.366 1.366z"/><path d="m43.5 12.081a1 1 0 0 0 -1.366.366l-1 1.733a1 1 0 1 0 1.732 1l1-1.733a1 1 0 0 0 -.366-1.366z"/></g><path d="m32 31a1 1 0 0 1 -1-1v-13a1 1 0 0 1 2 0v13a1 1 0 0 1 -1 1z" fill="#4e901e"/><path d="m24.207 37.5a1 1 0 0 1 -.5-1.866l7.794-4.5a1 1 0 0 1 1 1.732l-7.794 4.5a.992.992 0 0 1 -.5.134z" fill="#005ece"/><circle cx="32" cy="32" fill="#d80027" r="3"/></g></svg>